<!-- <svg xmlns="http://www.w3.org/2000/svg" version="1.1" xmlns:xlink="http://www.w3.org/1999/xlink" xmlns:svgjs="http://svgjs.dev/svgjs" viewBox="0 0 800 800" opacity="0.6"><defs><filter id="bbblurry-filter" x="-100%" y="-100%" width="400%" height="400%" filterUnits="objectBoundingBox" primitiveUnits="userSpaceOnUse" color-interpolation-filters="sRGB">
	<feGaussianBlur stdDeviation="111" x="0%" y="0%" width="100%" height="100%" in="SourceGraphic" edgeMode="none" result="blur"></feGaussianBlur></filter></defs><g filter="url(#bbblurry-filter)"><ellipse rx="66" ry="71.5" cx="231.75307979883326" cy="401.0218686408397" fill="#b1b6f9ff"></ellipse><ellipse rx="66" ry="71.5" cx="563.0032348632812" cy="598.3867532620256" fill="#b1b6f9ff"></ellipse><ellipse rx="66" ry="71.5" cx="570.8510537671793" cy="120.49278738611031" fill="#b1b6f9ff"></ellipse></g></svg> -->
<!--
<svg xmlns="http://www.w3.org/2000/svg" version="1.1" xmlns:xlink="http://www.w3.org/1999/xlink" xmlns:svgjs="http://svgjs.dev/svgjs" viewBox="0 0 640 800" opacity="0.64"><defs><filter id="bbblurry-filter" x="-100%" y="-100%" width="400%" height="400%" filterUnits="objectBoundingBox" primitiveUnits="userSpaceOnUse" color-interpolation-filters="sRGB">
	<feGaussianBlur stdDeviation="98" x="0%" y="0%" width="100%" height="100%" in="SourceGraphic" edgeMode="none" result="blur"></feGaussianBlur></filter></defs><g filter="url(#bbblurry-filter)"><ellipse rx="152" ry="150" cx="-14.073556013933285" cy="6.757625069205233" fill="#b1b6f9ff"></ellipse><ellipse rx="152" ry="150" cx="95.17756616787642" cy="880.5941551388717" fill="#b1b6f9ff"></ellipse><ellipse rx="152" ry="150" cx="708.989339513103" cy="296.5287780761719" fill="#b1b6f9ff"></ellipse><ellipse rx="152" ry="150" cx="618.3616361843319" cy="911.3687311608022" fill="#b1b6f9ff"></ellipse><ellipse rx="152" ry="150" cx="-127.17398071289062" cy="433.6673278808594" fill="#e296c0ff"></ellipse><ellipse rx="152" ry="150" cx="706.4977734182762" cy="823.8748168945312" fill="#e296c0ff"></ellipse><ellipse rx="152" ry="150" cx="545.2192089651512" cy="-121.6650438684178" fill="#e296c0ff"></ellipse></g></svg> -->

<svg xmlns="http://www.w3.org/2000/svg" version="1.1" xmlns:xlink="http://www.w3.org/1999/xlink" xmlns:svgjs="http://svgjs.dev/svgjs" viewBox="0 0 640 800" opacity="0.5"><defs><filter id="bbblurry-filter" x="-100%" y="-100%" width="400%" height="400%" filterUnits="objectBoundingBox" primitiveUnits="userSpaceOnUse" color-interpolation-filters="sRGB">
	<feGaussianBlur stdDeviation="98" x="0%" y="0%" width="100%" height="100%" in="SourceGraphic" edgeMode="none" result="blur"></feGaussianBlur></filter></defs><g filter="url(#bbblurry-filter)"><ellipse rx="152" ry="150" cx="-14.073556013933285" cy="6.757625069205233" fill="#b1b6f9ff"></ellipse><ellipse rx="152" ry="150" cx="95.17756616787642" cy="880.5941551388717" fill="#b1b6f9ff"></ellipse><ellipse rx="152" ry="150" cx="708.989339513103" cy="296.5287780761719" fill="#b1b6f9ff"></ellipse><ellipse rx="152" ry="150" cx="618.3616361843319" cy="911.3687311608022" fill="#b1b6f9ff"></ellipse><ellipse rx="152" ry="150" cx="-107.01651121124507" cy="431.14762818343996" fill="#e296c0ff"></ellipse><ellipse rx="152" ry="150" cx="696.4190404696728" cy="822.6149498646654" fill="#e296c0ff"></ellipse><ellipse rx="152" ry="150" cx="542.6995263287401" cy="-93.94850338913324" fill="#e296c0ff"></ellipse></g></svg>
